<svg width="14" height="14" fill="none" xmlns="http://www.w3.org/2000/svg"><path d="m8.22 2.4-.02.02L1.93 8.7l-.04.03c-.16.16-.3.3-.4.49l.43.24-.43-.24c-.1.18-.15.37-.2.6l-.02.04-.55 2.21-.01.03c-.04.15-.08.32-.1.46a.75.75 0 0 0 .2.63c.21.2.47.21.63.2.14-.02.3-.06.46-.1h.03l2.2-.56.05-.01c.23-.06.42-.1.6-.2l-.24-.44.24.43c.18-.1.33-.24.49-.4l.03-.04 6.28-6.27.02-.02c.27-.28.51-.52.68-.73.18-.23.33-.49.36-.8v-.27a1.5 1.5 0 0 0-.36-.8c-.17-.22-.4-.46-.68-.74l-.02-.02-.36.36.36-.36-.02-.02c-.28-.27-.52-.51-.74-.68a1.5 1.5 0 0 0-.8-.36h-.27a1.5 1.5 0 0 0-.8.36c-.21.17-.45.4-.73.68Z" stroke="#282828"/><path d="M7.67 2.78 10.33 1 13 3.67l-1.78 2.66-3.55-3.55Z" fill="#282828"/></svg>